<svg xmlns="http://www.w3.org/2000/svg" width="23.539" height="22.434" viewBox="0 0 23.539 22.434">
  <g id="Group_236" data-name="Group 236" transform="translate(-16.4 -18)">
    <path id="Path_25" data-name="Path 25" d="M38.482,30.6A6.3,6.3,0,1,0,32.2,24.282,6.282,6.282,0,0,0,38.482,30.6Zm0-10.941a4.625,4.625,0,1,1-4.625,4.659A4.625,4.625,0,0,1,38.482,19.657Z" transform="translate(-10.347)" fill="#707070"/>
    <path id="Path_26" data-name="Path 26" d="M17.228,66.432H39.11a.84.84,0,0,0,.828-.828,7.925,7.925,0,0,0-7.9-7.9H24.3a7.925,7.925,0,0,0-7.9,7.9A.84.84,0,0,0,17.228,66.432ZM24.3,59.357h7.731a6.225,6.225,0,0,1,6.178,5.419H18.126A6.225,6.225,0,0,1,24.3,59.357Z" transform="translate(0 -25.998)" fill="#707070"/>
  </g>
</svg>
