<svg xmlns="http://www.w3.org/2000/svg" width="19.52" height="16.471" viewBox="0 0 19.52 16.471"><path d="M5.323,2.382a.458.458,0,0,0-.648,0L2.247,4.8l-.865-.843a.458.458,0,0,0-.648,0l-.6.6a.458.458,0,0,0,0,.648L1.949,7.007a.487.487,0,0,0,.671,0l.594-.6L5.967,3.66a.461.461,0,0,0,0-.648Zm0,6.069a.458.458,0,0,0-.648,0L2.247,10.881l-.865-.843a.458.458,0,0,0-.648,0l-.6.6a.458.458,0,0,0,0,.648L1.944,13.1a.487.487,0,0,0,.671,0l.6-.6L5.967,9.744a.458.458,0,0,0,0-.644ZM2.44,15.059a1.83,1.83,0,1,0,0,3.66,1.83,1.83,0,1,0,0-3.66Zm16.47.61H7.93a.61.61,0,0,0-.61.61V17.5a.61.61,0,0,0,.61.61H18.91a.61.61,0,0,0,.61-.61v-1.22A.61.61,0,0,0,18.91,15.669Zm0-12.2H7.93a.61.61,0,0,0-.61.61V5.3a.61.61,0,0,0,.61.61H18.91a.61.61,0,0,0,.61-.61V4.079A.61.61,0,0,0,18.91,3.469Zm0,6.1H7.93a.61.61,0,0,0-.61.61V11.4a.61.61,0,0,0,.61.61H18.91a.61.61,0,0,0,.61-.61v-1.22A.61.61,0,0,0,18.91,9.569Z" transform="translate(0 -2.248)" fill="#707070"/></svg>