<svg id="Layer_2" data-name="Layer 2" xmlns="http://www.w3.org/2000/svg" width="75.898" height="73.457" viewBox="0 0 75.898 73.457">
  <g id="icon" transform="translate(2.5)">
    <path id="Path_27" data-name="Path 27" d="M68.535,16.43H10.88V64.672a5.883,5.883,0,0,0,5.883,5.883H68.535a5.883,5.883,0,0,0,5.883-5.883V22.313a5.883,5.883,0,0,0-5.883-5.883Z" transform="translate(-1.02 2.902)" fill="#b76a8a" opacity="0.15"/>
    <rect id="Rectangle_62" data-name="Rectangle 62" width="63.538" height="54.125" rx="2" transform="translate(0 8.742)" fill="none" stroke="#6a80b9" stroke-miterlimit="10" stroke-width="5"/>
    <path id="Path_28" data-name="Path 28" d="M16.4,0V18.344" transform="translate(-0.045)" fill="none" stroke="#6a80b9" stroke-miterlimit="10" stroke-width="3"/>
    <path id="Path_29" data-name="Path 29" d="M29.5,0V18.344" transform="translate(2.269)" fill="none" stroke="#6a80b9" stroke-miterlimit="10" stroke-width="3"/>
    <path id="Path_30" data-name="Path 30" d="M42.6,0V18.344" transform="translate(4.583)" fill="none" stroke="#6a80b9" stroke-miterlimit="10" stroke-width="3"/>
    <path id="Path_31" data-name="Path 31" d="M13.4,25.13H51.287" transform="translate(-0.575 4.439)" fill="none" stroke="#6a80b9" stroke-miterlimit="10" stroke-width="2"/>
    <path id="Path_32" data-name="Path 32" d="M13.4,33.43H51.287" transform="translate(-0.575 5.905)" fill="none" stroke="#6a80b9" stroke-miterlimit="10" stroke-width="2"/>
    <path id="Path_33" data-name="Path 33" d="M13.4,41.73H51.287" transform="translate(-0.575 7.37)" fill="none" stroke="#6a80b9" stroke-miterlimit="10" stroke-width="2"/>
  </g>
</svg>
