<svg xmlns="http://www.w3.org/2000/svg" width="21.239" height="21.239" viewBox="0 0 21.239 21.239"><path d="M4.18,14.8h7.08a1.183,1.183,0,0,0,1.18-1.18V4.18A1.183,1.183,0,0,0,11.26,3H4.18A1.183,1.183,0,0,0,3,4.18v9.44A1.183,1.183,0,0,0,4.18,14.8Zm0,9.44h7.08a1.183,1.183,0,0,0,1.18-1.18v-4.72a1.183,1.183,0,0,0-1.18-1.18H4.18A1.183,1.183,0,0,0,3,18.339v4.72A1.183,1.183,0,0,0,4.18,24.239Zm11.8,0h7.08a1.183,1.183,0,0,0,1.18-1.18v-9.44a1.183,1.183,0,0,0-1.18-1.18h-7.08a1.183,1.183,0,0,0-1.18,1.18v9.44A1.183,1.183,0,0,0,15.979,24.239ZM14.8,4.18V8.9a1.183,1.183,0,0,0,1.18,1.18h7.08a1.183,1.183,0,0,0,1.18-1.18V4.18A1.183,1.183,0,0,0,23.059,3h-7.08A1.183,1.183,0,0,0,14.8,4.18Z" transform="translate(-3 -3)" fill="#6b84ed"/></svg>