<svg xmlns="http://www.w3.org/2000/svg" width="27.439" height="27.439" viewBox="0 0 27.439 27.439">
  <path id="Path_358" data-name="Path 358" d="M6.116,15.72a1.372,1.372,0,0,0-1.372-1.372H3.372a1.372,1.372,0,1,0,0,2.744H4.744A1.372,1.372,0,0,0,6.116,15.72Zm.878,6.86-.974.974a1.368,1.368,0,0,0,1.934,1.934l.974-.974a1.372,1.372,0,0,0-1.934-1.934ZM15.72,6.116a1.372,1.372,0,0,0,1.372-1.372V3.372a1.372,1.372,0,1,0-2.744,0V4.744A1.372,1.372,0,0,0,15.72,6.116Zm7.765,3.21a1.372,1.372,0,0,0,.96-.4l.974-.974A1.372,1.372,0,1,0,23.485,6.02l-.905.974a1.366,1.366,0,0,0,.905,2.332Zm-16.463-.4A1.368,1.368,0,0,0,8.956,6.994L7.982,6.02A1.378,1.378,0,1,0,6.02,7.954Zm21.046,5.419H26.7a1.372,1.372,0,1,0,0,2.744h1.372a1.372,1.372,0,1,0,0-2.744Zm-3.622,8.232a1.372,1.372,0,0,0-1.866,1.866l.974.974a1.368,1.368,0,0,0,1.934-1.934ZM15.72,8.174a7.546,7.546,0,1,0,7.546,7.546A7.546,7.546,0,0,0,15.72,8.174Zm0,12.348a4.8,4.8,0,1,1,4.8-4.8,4.8,4.8,0,0,1-4.8,4.8Zm0,4.8A1.372,1.372,0,0,0,14.348,26.7v1.372a1.372,1.372,0,1,0,2.744,0V26.7A1.372,1.372,0,0,0,15.72,25.323Z" transform="translate(-2 -2)" fill="#ab53db"/>
</svg>
