<svg id="Layer_1" data-name="Layer 1" xmlns="http://www.w3.org/2000/svg" viewBox="0 0 136 135.98"><defs><style>.cls-1{fill:#1877f2;}.cls-2{fill:#fff;}</style></defs><path id="Path_290" data-name="Path 290" class="cls-1" d="M160.06,92.07a68,68,0,1,0-78.62,67.17V111.72H64.18V92.07H81.45v-15c0-17,10.14-26.45,25.68-26.45A104.81,104.81,0,0,1,122.35,52V68.7h-8.58a9.8,9.8,0,0,0-11.08,10.62V92.08h18.86l-3,19.65H102.69v47.51A68,68,0,0,0,160.06,92.07Z" transform="translate(-24.06 -24.07)"/><path id="Path_291" data-name="Path 291" class="cls-2" d="M117.33,111.72l3-19.66H101.48V79.31a9.82,9.82,0,0,1,11.09-10.62h8.59V51.94a104.94,104.94,0,0,0-15.22-1.33c-15.53,0-25.69,9.42-25.69,26.45v15H63v19.66H80.23v47.52a68.83,68.83,0,0,0,21.25,0V111.72Z" transform="translate(-24.06 -24.07)"/></svg>