<svg id="Layer_1" data-name="Layer 1" xmlns="http://www.w3.org/2000/svg" viewBox="0 0 115.68 118"><defs><style>.cls-1{fill:#4285f4;}.cls-2{fill:#34a853;}.cls-3{fill:#fbbc05;}.cls-4{fill:#eb4335;}</style></defs><path id="Path_286" data-name="Path 286" class="cls-1" d="M149.86,93.37a50.78,50.78,0,0,0-1.25-12H93.23v21.89h32.51a28.84,28.84,0,0,1-12,19.14l-.12.73,17.51,13.56,1.22.12a57.68,57.68,0,0,0,17.56-43.38" transform="translate(-34.23 -33.06)"/><path id="Path_287" data-name="Path 287" class="cls-2" d="M93.22,151a56.23,56.23,0,0,0,39.07-14.29l-18.62-14.41a34.87,34.87,0,0,1-20.45,5.9,35.5,35.5,0,0,1-33.53-24.51l-.7.06L40.78,117.88l-.23.66a59,59,0,0,0,52.69,32.51" transform="translate(-34.23 -33.06)"/><path id="Path_288" data-name="Path 288" class="cls-3" d="M59.67,103.72a36.41,36.41,0,0,1-2-11.66,38.24,38.24,0,0,1,1.91-11.67l0-.78L41.12,65.29l-.6.29a58.84,58.84,0,0,0,0,53l19.15-14.81" transform="translate(-34.23 -33.06)"/><path id="Path_289" data-name="Path 289" class="cls-4" d="M93.22,55.86A32.66,32.66,0,0,1,116,64.64l16.65-16.25A56.63,56.63,0,0,0,93.22,33.07a58.92,58.92,0,0,0-52.69,32.5L59.6,80.39A35.66,35.66,0,0,1,93.23,55.88" transform="translate(-34.23 -33.06)"/></svg>