<svg width="315" height="61" viewBox="0 0 315 61" fill="none" xmlns="http://www.w3.org/2000/svg">
<path d="M162.698 47.2366C162.951 47.3053 162.698 48.0388 163.181 49.0014C163.734 50.1015 164.953 50.812 166.08 50.9953C168.519 51.4308 170.244 49.4139 170.336 49.2764C171.97 47.3283 171.487 44.6467 171.211 44.5779C171.119 44.555 171.05 44.9447 170.612 45.5635C170.267 46.0677 169.554 47.0532 168.404 47.2824C167.116 47.5116 166.057 46.5948 165.942 46.5032C164.7 45.3801 164.631 43.4091 165.022 43.2257C165.229 43.1111 165.459 43.6153 166.149 43.7529C167.024 43.9362 167.783 43.3861 167.875 43.3174C168.933 42.5152 168.864 40.8879 168.864 40.4754C168.703 36.7166 163.849 34.2872 164.148 33.8288C164.378 33.4621 167.484 34.5622 170.382 36.9917C171.993 38.3668 174.178 40.2004 175.03 43.3861C175.191 43.982 176.065 47.2366 174.684 50.3765C174.086 51.7288 173.465 52.1872 173.35 53.5623C173.12 56.6106 174.247 57.2523 173.994 57.5273C173.534 57.9857 172.315 57.8482 171.648 57.2294C170.819 56.4731 171.049 55.2583 170.52 55.1208C170.152 55.0291 168.289 57.5961 164.976 56.6335C163.089 56.1063 161.203 54.5708 160.789 52.3705C160.283 49.666 162.215 47.122 162.698 47.2366Z" fill="white"/>
<path d="M144.591 37.3583C147.375 34.8142 150.434 33.5995 150.688 33.9433C151.01 34.4017 146.247 36.9916 146.247 40.7503C146.247 41.1629 146.247 42.7901 147.329 43.5465C147.421 43.6152 148.203 44.1195 149.054 43.9132C149.744 43.7527 149.951 43.2485 150.158 43.3402C150.55 43.5236 150.55 45.4717 149.353 46.6406C149.238 46.7552 148.249 47.6949 146.938 47.5115C145.764 47.3511 145.028 46.3655 144.66 45.8842C144.2 45.2883 144.131 44.8987 144.039 44.9216C143.786 44.9904 143.395 47.6719 145.097 49.5742C145.212 49.7118 147.007 51.637 149.422 51.1098C150.55 50.8577 151.723 50.1243 152.229 49.0013C152.689 48.0387 152.39 47.3052 152.643 47.2365C153.126 47.099 155.151 49.5513 154.76 52.2787C154.438 54.479 152.62 56.1062 150.711 56.7251C147.444 57.8023 145.488 55.327 145.12 55.4187C144.591 55.5562 144.867 56.7938 144.085 57.5502C143.441 58.1919 142.221 58.3752 141.738 57.9398C141.462 57.6877 142.566 57.0001 142.221 53.9518C142.06 52.5996 141.439 52.1641 140.772 50.8348C139.277 47.7636 140.013 44.4862 140.151 43.8673C140.933 40.7045 143.027 38.7793 144.591 37.3583Z" fill="white"/>
<path d="M157.592 30.2534C157.592 30.2534 158.582 29.6345 158.743 26.8384C158.743 26.8384 161.78 28.7636 161.55 33.0724C161.55 33.0724 160.491 32.4536 159.778 31.7431C159.778 31.7431 159.065 35.3185 157.639 36.2811C157.639 36.2811 155.982 34.9747 155.729 31.6514C155.729 31.6514 155.062 32.5682 153.935 33.1183C153.935 33.1183 152.6 28.9699 156.626 26.7009C156.626 26.7009 156.534 29.6575 157.592 30.2534Z" fill="white"/>
<path d="M159.732 56.2661C160.79 57.3205 160.859 59.2002 159.755 60.2087C158.65 61.2173 156.925 61.309 155.844 60.2087C154.785 59.1543 154.716 57.2747 155.821 56.2661C156.902 55.2575 158.627 55.1659 159.732 56.2661Z" fill="white"/>
<path d="M128.72 32.3615C129.456 33.095 129.502 34.4016 128.743 35.1122C127.961 35.8228 126.765 35.8915 126.006 35.1122C125.269 34.3787 125.223 33.0721 125.983 32.3615C126.742 31.6509 127.938 31.6051 128.72 32.3615Z" fill="white"/>
<path d="M164.493 38.298C164.539 39.6503 163.734 40.7504 162.238 41.3692C161.203 41.8047 159.96 41.6442 158.856 41.0254C159.592 42.8819 160.398 46.4802 157.66 49.4139C157.66 49.4139 153.979 45.8614 156.349 40.9108C155.152 41.5296 153.864 41.6672 152.806 41.14C151.333 40.4295 150.597 39.3065 150.735 37.9542C150.781 37.5417 150.965 37.1521 151.264 36.8312C151.632 36.4416 152.162 36.1436 152.714 36.0978C153.519 36.029 154.186 36.3041 154.6 36.877C154.922 37.3354 154.968 37.9313 154.738 38.3897C154.577 38.6877 154.232 38.7793 153.933 38.6418C153.634 38.5043 153.519 38.1376 153.634 37.8167C153.634 37.7938 153.657 37.6792 153.565 37.5417C153.427 37.3583 153.174 37.2667 152.829 37.2896C152.369 37.3354 151.977 37.7709 151.954 38.0459C151.885 38.871 152.346 39.5357 153.335 40.017C154.393 40.5212 155.912 40.0399 157.062 38.8252C157.476 38.4585 157.867 38.5043 158.074 38.7564C159.155 40.0628 160.674 40.6587 161.778 40.2003C162.79 39.7878 163.296 39.146 163.273 38.3209C163.273 38.0459 162.882 37.5875 162.445 37.5188C162.123 37.4729 161.87 37.5188 161.709 37.725C161.617 37.8396 161.617 37.9542 161.617 38.0001C161.732 38.3209 161.594 38.6647 161.272 38.8023C160.973 38.9169 160.628 38.8023 160.49 38.5043C160.283 38.0459 160.375 37.45 160.72 37.0146C161.134 36.4645 161.847 36.2124 162.629 36.327C163.595 36.4874 164.447 37.3813 164.493 38.298Z" fill="white"/>
<path d="M118.32 13.1556C119.999 12.9722 120.528 12.193 122.185 11.3679C126.004 9.51143 130.076 10.4511 130.812 10.6116C134.815 11.5283 137.185 14.0953 138.956 16.0434C142.108 19.4813 143.626 23.2401 143.189 23.538C142.637 23.9277 139.393 18.0832 134.746 18.0603C134.24 18.0603 132.215 18.0603 131.272 19.3896C131.203 19.5042 130.559 20.4669 130.812 21.5211C131.019 22.3692 131.64 22.6213 131.525 22.8734C131.318 23.3547 128.879 23.3547 127.43 21.8878C127.292 21.7503 126.119 20.5127 126.349 18.9083C126.556 17.4873 127.752 16.5706 128.373 16.1122C129.109 15.5621 129.593 15.4705 129.547 15.3329C129.478 15.0121 126.119 14.5537 123.772 16.6393C123.611 16.7768 121.218 19 121.863 21.9566C122.162 23.3318 123.105 24.7757 124.485 25.4174C125.682 25.9675 126.602 25.6237 126.694 25.9446C126.878 26.5405 123.818 29.0387 120.436 28.5344C117.699 28.1448 115.697 25.8987 114.915 23.561C113.58 19.5272 116.663 17.1206 116.525 16.6852C116.341 16.0205 114.823 16.3872 113.879 15.4017C113.097 14.5995 112.867 13.1098 113.396 12.5139C113.696 12.2159 114.547 13.5681 118.32 13.1556Z" fill="white"/>
<path d="M189.317 32.3615C190.099 33.0721 190.03 34.3787 189.294 35.1122C188.534 35.8915 187.315 35.8228 186.556 35.1122C185.774 34.4016 185.843 33.095 186.579 32.3615C187.338 31.6051 188.557 31.6509 189.317 32.3615Z" fill="white"/>
<path d="M149.263 27.251C148.665 28.8782 147.791 30.4597 146.571 31.7431C144.11 34.3789 140.406 35.7082 136.771 35.6853C136.104 35.6853 135.413 35.6165 134.792 35.3185C134.194 35.0206 133.688 34.4476 133.665 33.8059C133.619 32.7974 134.7 32.0182 135.712 31.8807C136.725 31.7431 137.76 32.0182 138.795 32.0869C140.521 32.2015 142.292 31.7202 143.719 30.7118C143.143 30.9868 142.407 31.216 141.901 30.8493C141.556 30.5972 141.464 30.0929 141.556 29.6804C141.671 29.2679 141.947 28.9241 142.269 28.6261C143.143 27.8239 144.317 27.4343 145.329 26.8155C146.663 26.0133 147.791 24.8215 148.297 23.3776C148.665 22.2775 148.665 21.0857 148.527 19.9397C148.274 17.7165 147.514 15.5621 146.341 13.6369C146.663 14.8058 146.686 16.0434 146.41 17.2352C146.295 17.7395 146.111 18.2437 145.766 18.6104C145.398 18.9771 144.823 19.1834 144.363 18.9771C143.718 18.7021 143.557 17.8999 143.511 17.2123C143.419 15.5621 143.557 13.889 143.373 12.2388C143.304 11.5971 143.143 10.9554 142.936 10.3595C138.082 3.62119 124.117 3.71286 123.473 3.71286H3.819C3.47391 4.3546 2.80677 4.79007 2.04757 4.79007C0.920274 4.79007 0 3.8733 0 2.75025C0 1.62721 0.920274 0.710438 2.04757 0.710438C2.85278 0.710438 3.51995 1.16882 3.84203 1.83348H123.45C123.519 1.83348 123.634 1.83348 123.772 1.83348C126.303 1.83348 138.082 2.17727 143.626 8.20504C145.053 9.28225 146.341 10.5428 147.353 12.0096C150.39 16.3643 151.126 22.2087 149.263 27.251Z" fill="white"/>
<path d="M181.38 18.0832C176.709 18.1062 173.489 23.9506 172.936 23.5609C172.499 23.263 174.018 19.4813 177.169 16.0663C178.941 14.1411 181.333 11.5512 185.314 10.6345C186.073 10.474 190.145 9.53435 193.941 11.3908C195.597 12.193 196.126 12.9722 197.806 13.1785C201.579 13.5911 202.407 12.2388 202.729 12.5826C203.258 13.1556 203.028 14.6683 202.246 15.4704C201.28 16.456 199.761 16.0893 199.6 16.7539C199.485 17.2123 202.545 19.6188 201.211 23.6297C200.429 25.9675 198.427 28.2136 195.689 28.6032C192.307 29.0845 189.248 26.6092 189.432 26.0133C189.524 25.6924 190.444 26.0362 191.64 25.4862C193.021 24.8444 193.964 23.4005 194.263 22.0254C194.907 19.0458 192.514 16.8456 192.353 16.7081C190.007 14.6224 186.671 15.0808 186.579 15.4017C186.556 15.5392 187.016 15.608 187.752 16.1809C188.35 16.6393 189.57 17.5332 189.777 18.9771C190.007 20.5814 188.834 21.8191 188.695 21.9566C187.246 23.4234 184.807 23.4234 184.6 22.9421C184.485 22.6671 185.106 22.4379 185.314 21.5899C185.567 20.5356 184.923 19.573 184.854 19.4584C183.91 18.0832 181.886 18.0832 181.38 18.0832Z" fill="white"/>
<path d="M157.637 15.8143L153.358 11.5513C155.383 9.53439 155.383 6.27985 153.358 4.26296L157.637 -2.95639e-05L161.917 4.26296C159.892 6.27985 159.892 9.53439 161.917 11.5513L157.637 15.8143Z" fill="white"/>
<path d="M164.216 9.39697C163.388 9.39697 162.698 8.73223 162.698 7.8841C162.698 7.0589 163.365 6.37124 164.216 6.37124C165.044 6.37124 165.735 7.03598 165.735 7.8841C165.735 8.73223 165.044 9.39697 164.216 9.39697Z" fill="white"/>
<path d="M151.287 9.39697C150.459 9.39697 149.769 8.73223 149.769 7.8841C149.769 7.0589 150.436 6.37124 151.287 6.37124C152.138 6.37124 152.806 7.03598 152.806 7.8841C152.783 8.73223 152.115 9.39697 151.287 9.39697Z" fill="white"/>
<path d="M312.974 4.7901C312.191 4.7901 311.547 4.33171 311.202 3.71289H192.767C192.1 3.71289 178.158 3.62122 173.304 10.3595C173.097 10.9783 172.936 11.62 172.867 12.2618C172.683 13.912 172.821 15.5851 172.729 17.2353C172.683 17.9228 172.522 18.725 171.878 19C171.395 19.2063 170.82 19 170.475 18.6333C170.106 18.2666 169.945 17.7624 169.83 17.2582C169.554 16.0664 169.577 14.8287 169.899 13.6599C168.726 15.5851 167.99 17.7395 167.714 19.9627C167.576 21.1086 167.576 22.3004 167.944 23.4005C168.427 24.8445 169.577 26.0592 170.912 26.8384C171.924 27.4573 173.097 27.8469 173.971 28.6491C174.293 28.947 174.57 29.2908 174.685 29.7034C174.8 30.1159 174.685 30.5972 174.34 30.8722C173.833 31.2619 173.097 31.0327 172.522 30.7347C173.925 31.7432 175.697 32.2474 177.445 32.1099C178.481 32.0411 179.493 31.7432 180.528 31.9036C181.54 32.0411 182.622 32.8204 182.576 33.8288C182.553 34.4935 182.046 35.0665 181.448 35.3415C180.85 35.6394 180.16 35.6853 179.47 35.7082C175.858 35.754 172.131 34.4247 169.669 31.7661C168.473 30.4826 167.599 28.9012 166.978 27.2739C165.114 22.2317 165.85 16.3873 168.887 11.9868C169.899 10.5199 171.165 9.25936 172.591 8.18215C178.135 2.15438 189.915 1.81059 192.445 1.81059C192.583 1.81059 192.675 1.81059 192.767 1.81059H311.156C311.501 1.14593 312.168 0.687546 312.951 0.687546C314.078 0.687546 314.998 1.60432 314.998 2.72736C315.044 3.87333 314.124 4.7901 312.974 4.7901Z" fill="white"/>
</svg>
