<svg width="20" height="19" viewBox="0 0 20 19" fill="none" xmlns="http://www.w3.org/2000/svg">
<path d="M9.53618 2.74417L9.99509 3.09403L10.4509 2.7401C10.7223 2.52933 11.0149 2.34837 11.3278 2.19769C12.171 1.79164 12.9003 1.64953 14.1377 1.64943C17.0311 1.66204 19.25 4.05754 19.25 7.26715C19.25 9.67879 17.8855 12.1157 15.095 14.5848C13.6298 15.8812 11.7595 17.1614 10.4472 17.8299L10 18.0577L9.55282 17.8299C8.24055 17.1614 6.37018 15.8812 4.90503 14.5848C2.11453 12.1157 0.75 9.67879 0.75 7.26715C0.75 4.0175 2.94694 1.64941 5.86777 1.64941C7.05151 1.64941 7.82549 1.80355 8.69168 2.22503C8.993 2.37165 9.27479 2.5449 9.53618 2.74417Z" stroke="black" stroke-width="1.5"/>
<path d="M3.99994 8C3.66661 7 3.99989 5 6.49994 5" stroke="#C12C74" stroke-width="1.5" stroke-linecap="round"/>
</svg>
