<svg width="315" height="61" viewBox="0 0 315 61" fill="none" xmlns="http://www.w3.org/2000/svg">
<path d="M162.698 13.7635C162.951 13.6947 162.698 12.9613 163.181 11.9987C163.734 10.8986 164.953 10.1881 166.08 10.0047C168.519 9.56925 170.244 11.5861 170.336 11.7237C171.97 13.6718 171.487 16.3534 171.211 16.4221C171.119 16.445 171.05 16.0554 170.612 15.4366C170.267 14.9324 169.554 13.9468 168.404 13.7176C167.116 13.4884 166.057 14.4052 165.942 14.4969C164.7 15.6199 164.631 17.591 165.022 17.7743C165.229 17.8889 165.459 17.3847 166.149 17.2472C167.024 17.0639 167.783 17.6139 167.875 17.6827C168.933 18.4848 168.864 20.1121 168.864 20.5247C168.703 24.2834 163.849 26.7129 164.148 27.1713C164.378 27.538 167.484 26.4378 170.382 24.0084C171.993 22.6332 174.178 20.7997 175.03 17.6139C175.191 17.018 176.065 13.7635 174.684 10.6235C174.086 9.2713 173.465 8.81291 173.35 7.43775C173.12 4.38949 174.247 3.74775 173.994 3.47272C173.534 3.01433 172.315 3.15185 171.648 3.77067C170.819 4.52701 171.049 5.74173 170.52 5.87924C170.152 5.97092 168.289 3.40396 164.976 4.36657C163.089 4.89372 161.203 6.42931 160.789 8.62956C160.283 11.334 162.215 13.8781 162.698 13.7635Z" fill="white"/>
<path d="M144.591 23.6416C147.375 26.1856 150.434 27.4004 150.688 27.0566C151.01 26.5982 146.247 24.0083 146.247 20.2496C146.247 19.837 146.247 18.2097 147.329 17.4534C147.421 17.3846 148.203 16.8804 149.054 17.0867C149.744 17.2471 149.951 17.7514 150.158 17.6597C150.55 17.4763 150.55 15.5282 149.353 14.3593C149.238 14.2447 148.249 13.305 146.938 13.4884C145.764 13.6488 145.028 14.6343 144.66 15.1156C144.2 15.7115 144.131 16.1012 144.039 16.0782C143.786 16.0095 143.395 13.3279 145.097 11.4256C145.212 11.2881 147.007 9.3629 149.422 9.89004C150.55 10.1422 151.723 10.8756 152.229 11.9986C152.689 12.9612 152.39 13.6946 152.643 13.7634C153.126 13.9009 155.151 11.4486 154.76 8.72116C154.438 6.52091 152.62 4.89364 150.711 4.27482C147.444 3.19761 145.488 5.6729 145.12 5.58122C144.591 5.4437 144.867 4.20606 144.085 3.44973C143.441 2.80799 142.221 2.62463 141.738 3.0601C141.462 3.31221 142.566 3.99979 142.221 7.04805C142.06 8.40029 141.439 8.83576 140.772 10.1651C139.277 13.2363 140.013 16.5137 140.151 17.1325C140.933 20.2954 143.027 22.2206 144.591 23.6416Z" fill="white"/>
<path d="M157.592 30.7466C157.592 30.7466 158.582 31.3654 158.743 34.1616C158.743 34.1616 161.78 32.2363 161.55 27.9275C161.55 27.9275 160.491 28.5463 159.778 29.2568C159.778 29.2568 159.065 25.6814 157.639 24.7188C157.639 24.7188 155.982 26.0252 155.729 29.3485C155.729 29.3485 155.062 28.4317 153.935 27.8817C153.935 27.8817 152.6 32.0301 156.626 34.2991C156.626 34.2991 156.534 31.3425 157.592 30.7466Z" fill="white"/>
<path d="M159.732 4.73382C160.79 3.67939 160.859 1.79977 159.755 0.791191C158.65 -0.217388 156.925 -0.309077 155.844 0.791191C154.785 1.84561 154.716 3.72524 155.821 4.73382C156.902 5.7424 158.627 5.83409 159.732 4.73382Z" fill="white"/>
<path d="M128.72 28.6384C129.456 27.9049 129.502 26.5984 128.743 25.8878C127.961 25.1772 126.765 25.1084 126.006 25.8878C125.269 26.6213 125.223 27.9278 125.983 28.6384C126.742 29.349 127.938 29.3949 128.72 28.6384Z" fill="white"/>
<path d="M164.493 22.7019C164.539 21.3497 163.734 20.2495 162.238 19.6307C161.203 19.1953 159.96 19.3557 158.856 19.9745C159.592 18.1181 160.398 14.5197 157.66 11.5861C157.66 11.5861 153.979 15.1385 156.349 20.0891C155.152 19.4703 153.864 19.3328 152.806 19.8599C151.333 20.5704 150.597 21.6935 150.735 23.0457C150.781 23.4582 150.965 23.8479 151.264 24.1687C151.632 24.5584 152.162 24.8563 152.714 24.9022C153.519 24.9709 154.186 24.6959 154.6 24.1229C154.922 23.6645 154.968 23.0686 154.738 22.6102C154.577 22.3123 154.232 22.2206 153.933 22.3581C153.634 22.4956 153.519 22.8623 153.634 23.1832C153.634 23.2061 153.657 23.3207 153.565 23.4582C153.427 23.6416 153.174 23.7333 152.829 23.7104C152.369 23.6645 151.977 23.2291 151.954 22.954C151.885 22.1289 152.346 21.4643 153.335 20.983C154.393 20.4787 155.912 20.96 157.062 22.1748C157.476 22.5415 157.867 22.4956 158.074 22.2435C159.155 20.9371 160.674 20.3412 161.778 20.7996C162.79 21.2122 163.296 21.8539 163.273 22.679C163.273 22.954 162.882 23.4124 162.445 23.4812C162.123 23.527 161.87 23.4812 161.709 23.2749C161.617 23.1603 161.617 23.0457 161.617 22.9999C161.732 22.679 161.594 22.3352 161.272 22.1977C160.973 22.0831 160.628 22.1977 160.49 22.4956C160.283 22.954 160.375 23.5499 160.72 23.9854C161.134 24.5355 161.847 24.7876 162.629 24.673C163.595 24.5125 164.447 23.6187 164.493 22.7019Z" fill="white"/>
<path d="M118.32 47.8445C119.999 48.0278 120.528 48.8071 122.185 49.6322C126.004 51.4886 130.076 50.5489 130.812 50.3885C134.815 49.4717 137.185 46.9048 138.956 44.9566C142.108 41.5187 143.626 37.76 143.189 37.462C142.637 37.0724 139.393 42.9168 134.746 42.9397C134.24 42.9397 132.215 42.9397 131.272 41.6104C131.203 41.4958 130.559 40.5332 130.812 39.4789C131.019 38.6309 131.64 38.3788 131.525 38.1267C131.318 37.6454 128.879 37.6454 127.43 39.1122C127.292 39.2497 126.119 40.4874 126.349 42.0917C126.556 43.5127 127.752 44.4295 128.373 44.8879C129.109 45.4379 129.593 45.5296 129.547 45.6671C129.478 45.988 126.119 46.4464 123.772 44.3607C123.611 44.2232 121.218 42 121.863 39.0435C122.162 37.6683 123.105 36.2244 124.485 35.5826C125.682 35.0326 126.602 35.3764 126.694 35.0555C126.878 34.4596 123.818 31.9614 120.436 32.4656C117.699 32.8553 115.697 35.1013 114.915 37.4391C113.58 41.4729 116.663 43.8794 116.525 44.3149C116.341 44.9795 114.823 44.6128 113.879 45.5984C113.097 46.4005 112.867 47.8903 113.396 48.4862C113.696 48.7842 114.547 47.4319 118.32 47.8445Z" fill="white"/>
<path d="M189.317 28.6384C190.099 27.9278 190.03 26.6213 189.294 25.8878C188.534 25.1084 187.315 25.1772 186.556 25.8878C185.774 26.5984 185.843 27.9049 186.579 28.6384C187.338 29.3949 188.557 29.349 189.317 28.6384Z" fill="white"/>
<path d="M149.263 33.749C148.665 32.1218 147.791 30.5403 146.571 29.2569C144.11 26.6211 140.406 25.2918 136.771 25.3147C136.104 25.3147 135.413 25.3835 134.792 25.6815C134.194 25.9794 133.688 26.5524 133.665 27.1941C133.619 28.2026 134.7 28.9818 135.712 29.1193C136.725 29.2569 137.76 28.9818 138.795 28.9131C140.521 28.7985 142.292 29.2798 143.719 30.2882C143.143 30.0132 142.407 29.784 141.901 30.1507C141.556 30.4028 141.464 30.9071 141.556 31.3196C141.671 31.7321 141.947 32.0759 142.269 32.3739C143.143 33.1761 144.317 33.5657 145.329 34.1845C146.663 34.9867 147.791 36.1785 148.297 37.6224C148.665 38.7225 148.665 39.9143 148.527 41.0603C148.274 43.2835 147.514 45.4379 146.341 47.3631C146.663 46.1942 146.686 44.9566 146.41 43.7648C146.295 43.2605 146.111 42.7563 145.766 42.3896C145.398 42.0229 144.823 41.8166 144.363 42.0229C143.718 42.2979 143.557 43.1001 143.511 43.7877C143.419 45.4379 143.557 47.111 143.373 48.7612C143.304 49.4029 143.143 50.0446 142.936 50.6405C138.082 57.3788 124.117 57.2871 123.473 57.2871L3.819 57.2871C3.47391 56.6454 2.80677 56.2099 2.04757 56.2099C0.920274 56.2099 0 57.1267 0 58.2498C0 59.3728 0.920274 60.2896 2.04757 60.2896C2.85278 60.2896 3.51995 59.8312 3.84203 59.1665L123.45 59.1665C123.519 59.1665 123.634 59.1665 123.772 59.1665C126.303 59.1665 138.082 58.8227 143.626 52.795C145.053 51.7178 146.341 50.4572 147.353 48.9904C150.39 44.6357 151.126 38.7913 149.263 33.749Z" fill="white"/>
<path d="M181.38 42.9168C176.709 42.8938 173.489 37.0494 172.936 37.4391C172.499 37.737 174.018 41.5187 177.169 44.9337C178.941 46.8589 181.333 49.4488 185.314 50.3655C186.073 50.526 190.145 51.4657 193.941 49.6092C195.597 48.807 196.126 48.0278 197.806 47.8215C201.579 47.4089 202.407 48.7612 202.729 48.4174C203.258 47.8444 203.028 46.3317 202.246 45.5296C201.28 44.544 199.761 44.9107 199.6 44.2461C199.485 43.7877 202.545 41.3812 201.211 37.3703C200.429 35.0325 198.427 32.7864 195.689 32.3968C192.307 31.9155 189.248 34.3908 189.432 34.9867C189.524 35.3076 190.444 34.9638 191.64 35.5138C193.021 36.1556 193.964 37.5995 194.263 38.9746C194.907 41.9542 192.514 44.1544 192.353 44.2919C190.007 46.3776 186.671 45.9192 186.579 45.5983C186.556 45.4608 187.016 45.392 187.752 44.8191C188.35 44.3607 189.57 43.4668 189.777 42.0229C190.007 40.4186 188.834 39.1809 188.695 39.0434C187.246 37.5766 184.807 37.5766 184.6 38.0579C184.485 38.3329 185.106 38.5621 185.314 39.4101C185.567 40.4644 184.923 41.427 184.854 41.5416C183.91 42.9168 181.886 42.9168 181.38 42.9168Z" fill="white"/>
<path d="M157.637 45.1857L153.358 49.4487C155.383 51.4656 155.383 54.7201 153.358 56.737L157.637 61L161.917 56.737C159.892 54.7201 159.892 51.4656 161.917 49.4487L157.637 45.1857Z" fill="white"/>
<path d="M164.216 51.6031C163.388 51.6031 162.698 52.2678 162.698 53.116C162.698 53.9412 163.365 54.6288 164.216 54.6288C165.044 54.6288 165.735 53.9641 165.735 53.116C165.735 52.2678 165.044 51.6031 164.216 51.6031Z" fill="white"/>
<path d="M151.287 51.6031C150.459 51.6031 149.769 52.2678 149.769 53.116C149.769 53.9412 150.436 54.6288 151.287 54.6288C152.138 54.6288 152.806 53.9641 152.806 53.116C152.783 52.2678 152.115 51.6031 151.287 51.6031Z" fill="white"/>
<path d="M312.974 56.2099C312.191 56.2099 311.547 56.6683 311.202 57.2871H192.767C192.1 57.2871 178.158 57.3788 173.304 50.6405C173.097 50.0217 172.936 49.38 172.867 48.7382C172.683 47.088 172.821 45.4149 172.729 43.7647C172.683 43.0772 172.522 42.275 171.878 42C171.395 41.7937 170.82 42 170.475 42.3667C170.106 42.7334 169.945 43.2376 169.83 43.7418C169.554 44.9336 169.577 46.1713 169.899 47.3401C168.726 45.4149 167.99 43.2605 167.714 41.0373C167.576 39.8914 167.576 38.6996 167.944 37.5995C168.427 36.1555 169.577 34.9408 170.912 34.1616C171.924 33.5427 173.097 33.1531 173.971 32.3509C174.293 32.053 174.57 31.7092 174.685 31.2966C174.8 30.8841 174.685 30.4028 174.34 30.1278C173.833 29.7381 173.097 29.9673 172.522 30.2653C173.925 29.2568 175.697 28.7526 177.445 28.8901C178.481 28.9589 179.493 29.2568 180.528 29.0964C181.54 28.9589 182.622 28.1796 182.576 27.1712C182.553 26.5065 182.046 25.9335 181.448 25.6585C180.85 25.3606 180.16 25.3147 179.47 25.2918C175.858 25.246 172.131 26.5753 169.669 29.2339C168.473 30.5174 167.599 32.0988 166.978 33.7261C165.114 38.7683 165.85 44.6127 168.887 49.0132C169.899 50.4801 171.165 51.7406 172.591 52.8178C178.135 58.8456 189.915 59.1894 192.445 59.1894C192.583 59.1894 192.675 59.1894 192.767 59.1894H311.156C311.501 59.8541 312.168 60.3125 312.951 60.3125C314.078 60.3125 314.998 59.3957 314.998 58.2726C315.044 57.1267 314.124 56.2099 312.974 56.2099Z" fill="white"/>
</svg>
