<svg xmlns="http://www.w3.org/2000/svg" width="201.573" height="34.964" viewBox="0 0 201.573 34.964">
  <g id="XMLID_30_" transform="translate(-94.286 -48.152)">
    <g id="XMLID_20_" transform="translate(94.286 48.152)">
      <g id="XMLID_24_" transform="translate(31.402 0)">
        <path id="XMLID_314_" d="M229.55,92.624a1.822,1.822,0,0,1,1.823,1.823V106.61c0,4.078,2.231,7.173,6.5,7.149a6.96,6.96,0,0,0,6.789-7.029V94.423a1.822,1.822,0,0,1,1.823-1.823h2.927a1.822,1.822,0,0,1,1.823,1.823v23.15a1.822,1.822,0,0,1-1.823,1.823h-2.471a1.815,1.815,0,0,1-1.8-1.607l-.24-2.039c-2.759,2.711-5.3,4.006-9.044,4.006-6.405,0-11.059-4.822-11.059-13.122V94.423a1.822,1.822,0,0,1,1.823-1.823h2.927Z" transform="translate(-224.8 -85.296)" fill="#1d1d1b"/>
        <path id="XMLID_312_" d="M374.91,96.125a1.806,1.806,0,0,1-2.375.312,9.455,9.455,0,0,0-5.35-1.391c-3.143,0-4.87.984-4.87,2.663,0,1.727,1.559,2.711,4.99,2.927,5.038.336,11.443,1.463,11.443,8.564,0,4.726-3.838,8.78-11.491,8.78-3.79,0-7.6-.576-11.155-3.622a1.842,1.842,0,0,1-.312-2.423l1.247-1.8a1.786,1.786,0,0,1,2.519-.432,15.964,15.964,0,0,0,7.821,2.543c2.495.048,4.822-1.247,4.822-3.191,0-1.847-1.511-2.591-5.3-2.807-5.038-.384-11.059-2.231-11.059-8.3,0-6.189,6.405-8.348,11.275-8.348a14.947,14.947,0,0,1,8.756,2.255,1.828,1.828,0,0,1,.408,2.711Z" transform="translate(-324.124 -83.015)" fill="#1d1d1b"/>
        <path id="XMLID_309_" d="M472.287,63.963v5.566h5.566a1.822,1.822,0,0,1,1.823,1.823v2.063a1.822,1.822,0,0,1-1.823,1.823h-5.614V86.777c0,2.543,1.415,3.79,3.478,3.79a6.308,6.308,0,0,0,1.607-.216,1.84,1.84,0,0,1,2.183,1.223l.7,2.111a1.838,1.838,0,0,1-1.247,2.327,14.888,14.888,0,0,1-3.67.528c-5.805.216-9.6-3.095-9.6-9.764V75.238h-3.167a1.822,1.822,0,0,1-1.823-1.823V71.352a1.822,1.822,0,0,1,1.823-1.823h3.167V64.275a1.8,1.8,0,0,1,1.631-1.8l2.975-.312A1.8,1.8,0,0,1,472.287,63.963Z" transform="translate(-404.109 -62.152)" fill="#1d1d1b"/>
        <path id="XMLID_261_" d="M582.8,104.338c0,7.7-5.254,13.938-13.938,13.938S555,112.039,555,104.338c0-7.653,5.3-13.938,13.818-13.938S582.8,96.685,582.8,104.338Zm-21.183,0c0,4.054,2.447,7.869,7.269,7.869s7.269-3.79,7.269-7.869c0-4.006-2.807-7.917-7.269-7.917C564.116,96.421,561.621,100.332,561.621,104.338Z" transform="translate(-475.786 -83.624)" fill="#1d1d1b"/>
        <path id="XMLID_28_" d="M710.687,118.032a1.822,1.822,0,0,1-1.823-1.823V104.046c0-4.078-2.231-7.173-6.5-7.149a6.96,6.96,0,0,0-6.789,7.029v12.307a1.822,1.822,0,0,1-1.823,1.823h-2.927A1.822,1.822,0,0,1,689,116.233V93.083a1.822,1.822,0,0,1,1.823-1.823h2.471a1.816,1.816,0,0,1,1.8,1.607l.24,2.039c2.711-2.663,5.422-4.006,8.78-4.006,6.285,0,11.323,4.726,11.323,13.122v12.211a1.822,1.822,0,0,1-1.823,1.823h-2.927Z" transform="translate(-577.641 -84.004)" fill="#1d1d1b"/>
        <path id="XMLID_25_" d="M825.013,105.829c.432,3.311,3.31,5.686,7.965,5.686a12.425,12.425,0,0,0,6.069-1.631,1.817,1.817,0,0,1,2.207.264l1.7,1.679a1.825,1.825,0,0,1-.24,2.783,17.566,17.566,0,0,1-9.836,2.927c-9.212,0-14.682-5.686-14.682-14.25,0-8.132,5.518-13.986,14.2-13.986,8.468,0,13.914,4.942,13.6,14.8a1.8,1.8,0,0,1-1.823,1.727Zm14.538-5.47c-.432-3.478-3.143-5.206-6.933-5.206-3.575,0-6.5,1.727-7.485,5.206Z" transform="translate(-675.846 -82.787)" fill="#1d1d1b"/>
      </g>
      <path id="XMLID_23_" d="M118.729,96.26l-9.836-6.213a3.488,3.488,0,0,0-3.67,0l-4.7,2.927v-.96a1.8,1.8,0,0,0-1.8-1.8H95.7a1.8,1.8,0,0,0-1.8,1.8V115.26a1.8,1.8,0,0,0,1.8,1.8h3.023a1.8,1.8,0,0,0,1.8-1.8V101.442a1.169,1.169,0,0,1,.552-.984l5.4-3.359a1.09,1.09,0,0,1,1.2,0l5.59,3.359a1.169,1.169,0,0,1,.552.984V115.26a1.8,1.8,0,0,0,1.8,1.8h2.975a1.8,1.8,0,0,0,1.8-1.8V99.211A3.481,3.481,0,0,0,118.729,96.26Z" transform="translate(-93.9 -82.958)" fill="#1d1d1b"/>
    </g>
  </g>
</svg>
