<svg xmlns="http://www.w3.org/2000/svg" width="75.079" height="75.08" viewBox="0 0 75.079 75.08"><defs><style>.a{fill:#0033a0;}</style></defs><g transform="translate(0 0)"><g transform="translate(0 0)"><path class="a" d="M73.829,0H1.251A1.251,1.251,0,0,0,0,1.251H0V26.278H2.5V2.5H72.577V30.032H28.78v2.5H73.828a1.251,1.251,0,0,0,1.251-1.251h0V1.251A1.251,1.251,0,0,0,73.829,0Z" transform="translate(0 0)"/></g></g><g transform="translate(41.202 6.41)"><g transform="translate(0 0)"><rect class="a" width="24" height="3" transform="translate(0.338 0.13)"/></g></g><g transform="translate(44.865 13.734)"><g transform="translate(0 0)"><rect class="a" width="26" height="3" transform="translate(-0.325 -0.194)"/></g></g><g transform="translate(40.286 21.059)"><g transform="translate(0 0)"><rect class="a" width="24" height="2" transform="translate(0.253 0.48)"/></g></g><g transform="translate(0 5.005)"><g transform="translate(0)"><path class="a" d="M39.943,37.783a4.038,4.038,0,0,0-5.279-2.177l-.1.045L24.412,40.915a6.188,6.188,0,0,0,.615-2.658A6.257,6.257,0,1,0,13.8,42.011h-.052a8.587,8.587,0,0,0-7.977,5.555L2.428,59.079a4.008,4.008,0,1,0,7.526,2.757l1.309-4.165v18.11a6.238,6.238,0,0,0-8.12,9.441A5.765,5.765,0,0,0,0,90.337v10.486a1.251,1.251,0,0,0,1.251,1.251H13.765a1.251,1.251,0,0,0,1.251-1.251h0V90.337a5.751,5.751,0,0,0-2.233-4.53h9.471a5.75,5.75,0,0,0-2.233,4.53v10.486a1.251,1.251,0,0,0,1.251,1.251H33.786a1.251,1.251,0,0,0,1.251-1.251h0V90.337A5.765,5.765,0,0,0,31.9,85.223a6.251,6.251,0,0,0-5.617-10.6v-25.6l11.487-5.965A4.038,4.038,0,0,0,39.943,37.783ZM18.77,34.5a3.754,3.754,0,1,1-3.754,3.754A3.754,3.754,0,0,1,18.77,34.5ZM7.508,77a3.754,3.754,0,1,1-3.754,3.754A3.754,3.754,0,0,1,7.508,77Zm5.005,22.57H2.5V90.337a3.283,3.283,0,0,1,3.279-3.279H9.234a3.283,3.283,0,0,1,3.279,3.279Zm20.021-9.235v9.235H22.524V90.337A3.283,3.283,0,0,1,25.8,87.058h3.452A3.283,3.283,0,0,1,32.534,90.337ZM27.529,77a3.754,3.754,0,1,1-3.754,3.754A3.758,3.758,0,0,1,27.529,77Zm10.124-37.13a1.609,1.609,0,0,1-.945.926L24.45,47.156a1.252,1.252,0,0,0-.675,1.111V75.782A6.172,6.172,0,0,0,21.828,83.3H20.021V62.032h-2.5V83.3h-4.31a6.2,6.2,0,0,0,.551-2.5h0V49.519a1.251,1.251,0,0,0-2.445-.375L7.583,61.033a1.5,1.5,0,0,1-2.087.832,1.536,1.536,0,0,1-.7-1.987l3.34-11.514a6.046,6.046,0,0,1,5.607-3.852H22.6a1.246,1.246,0,0,0,.576-.14l12.437-6.456a1.54,1.54,0,0,1,1.969.73A1.522,1.522,0,0,1,37.653,39.871Z" transform="translate(0 -32)"/></g></g><g transform="translate(40.042 47.491)"><path class="a" d="M267.874,314.356a6.257,6.257,0,1,0-8.847-.115q.057.058.115.115A5.765,5.765,0,0,0,256,319.47v10.486a1.251,1.251,0,0,0,1.251,1.251h12.514a1.251,1.251,0,0,0,1.251-1.251h0V319.47A5.765,5.765,0,0,0,267.874,314.356Zm-4.366-8.222a3.754,3.754,0,1,1-3.754,3.754A3.754,3.754,0,0,1,263.508,306.134Zm5.005,22.57H258.5V319.47a3.283,3.283,0,0,1,3.279-3.279h3.452a3.283,3.283,0,0,1,3.279,3.279Z" transform="translate(-256 -303.618)"/></g><g transform="translate(60.063 47.491)"><path class="a" d="M395.874,314.356a6.257,6.257,0,1,0-8.848-.115q.057.058.115.115A5.765,5.765,0,0,0,384,319.47v10.486a1.251,1.251,0,0,0,1.251,1.251h12.514a1.251,1.251,0,0,0,1.251-1.251h0V319.47A5.765,5.765,0,0,0,395.874,314.356Zm-4.366-8.222a3.754,3.754,0,1,1-3.754,3.754A3.754,3.754,0,0,1,391.508,306.134Zm5.005,22.57H386.5V319.47a3.283,3.283,0,0,1,3.279-3.279h3.452a3.283,3.283,0,0,1,3.279,3.279Z" transform="translate(-384 -303.618)"/></g></svg>