<svg xmlns="http://www.w3.org/2000/svg" width="73.906" height="66.428" viewBox="0 0 73.906 66.428"><defs><style>.a{fill:#fff;}</style></defs><g transform="translate(0 -25.905)"><path class="a" d="M1.444,311.683H13.858A1.444,1.444,0,0,0,15.3,310.24v-1.411a30.815,30.815,0,0,1,11.012,2.751,32.822,32.822,0,0,0,13.527,2.99c2.658,0,6.6-.894,11.728-2.657a1.443,1.443,0,1,0-.939-2.73c-4.821,1.659-8.45,2.5-10.788,2.5-5.5,0-8.876-1.352-12.455-2.784A33.523,33.523,0,0,0,15.3,305.94V291.274a17.777,17.777,0,0,0,2.825-1.105c2.845-1.3,6.07-2.771,10.491-.284l6.968,3.92a4.338,4.338,0,0,0,2.125.557h9.348A2.886,2.886,0,0,1,48.1,299.94a2.843,2.843,0,0,1-1.041.2H32.383a1.443,1.443,0,0,0,0,2.887H47.058a5.714,5.714,0,0,0,2.033-.372l.035-.011L67.088,296a2.888,2.888,0,0,1,2.282,5.3c-.247.119-.494.239-.972.467l-.418-.835a1.444,1.444,0,0,0-2.582,1.291l.383.767c-.945.434-2.019.918-3.193,1.435a1.444,1.444,0,0,0,1.163,2.642c2.84-1.25,4.719-2.136,6.852-3.156A5.775,5.775,0,0,0,66.054,293.3l-13.308,4.919a5.682,5.682,0,0,0,.085-.975,5.781,5.781,0,0,0-5.774-5.774H37.71a1.444,1.444,0,0,1-.708-.185l-6.969-3.921c-5.7-3.206-9.98-1.252-13.1.174a8.971,8.971,0,0,1-3.07,1.045H1.444A1.444,1.444,0,0,0,0,290.031V310.24a1.444,1.444,0,0,0,1.443,1.443Zm1.443-20.209h9.527V308.8H2.887Z" transform="translate(0 -222.237)"/><path class="a" d="M206.9,63.225a1.444,1.444,0,0,0,1.587,0c21.174-13.931,21.872-24.239,20.4-29.144a11.784,11.784,0,0,0-11.095-8.177,13.348,13.348,0,0,0-10.1,4.834,13.346,13.346,0,0,0-10.1-4.834A11.786,11.786,0,0,0,186.5,34.1C185.033,39,185.731,49.3,206.9,63.225Zm-17.63-28.3a8.96,8.96,0,0,1,8.324-6.132c5.757,0,8.725,4.871,8.856,5.09a1.444,1.444,0,0,0,2.49,0c.03-.051,3.043-5.087,8.855-5.087a8.957,8.957,0,0,1,8.329,6.118c.984,3.286,1.116,12.278-18.431,25.377-19.539-13.095-19.407-22.08-18.424-25.363Z" transform="translate(-159.172)"/><path class="a" d="M287.443,114.756h4.33v4.33a1.443,1.443,0,0,0,2.887,0v-4.33h4.33a1.443,1.443,0,0,0,0-2.887h-4.33v-4.33a1.443,1.443,0,0,0-2.887,0v4.33h-4.33a1.443,1.443,0,0,0,0,2.887Z" transform="translate(-244.716 -68.615)"/><circle class="a" cx="1.443" cy="1.443" r="1.443" transform="translate(55.719 84.538)"/></g></svg>