<svg xmlns="http://www.w3.org/2000/svg" width="88.002" height="79.424" viewBox="0 0 88.002 79.424"><defs><style>.a{fill:#0033a0;}</style></defs><g transform="translate(0 -0.501)"><path class="a" d="M41.719,262.6a1.719,1.719,0,1,0,1.719,1.719A1.72,1.72,0,0,0,41.719,262.6Zm0,0" transform="translate(-33.125 -217.048)"/><path class="a" d="M79,235.432,62.795,241a6.859,6.859,0,0,0-6.763-8.094H44.9a1.72,1.72,0,0,1-.844-.221l-9.081-5.107a12.042,12.042,0,0,0-5.9-1.547H16.892a5.164,5.164,0,0,0-4.86-3.437H1.719A1.719,1.719,0,0,0,0,224.316v30.937a1.719,1.719,0,0,0,1.719,1.719H12.032a5.167,5.167,0,0,0,4.812-3.308,15.691,15.691,0,0,1,5.612,1.666l8.989,5.393a21.911,21.911,0,0,0,20.341,1.161l32.08-14.126A6.626,6.626,0,0,0,79,235.432ZM13.75,251.824a1.721,1.721,0,0,1-1.719,1.711H3.438v-27.5h8.594a1.721,1.721,0,0,1,1.719,1.719Zm68.808-7.244-.054.022L50.371,258.751a18.473,18.473,0,0,1-17.158-.975l-8.989-5.393a18.952,18.952,0,0,0-7.036-2.14v-20.77H29.076a8.6,8.6,0,0,1,4.214,1.1l9.081,5.107a5.164,5.164,0,0,0,2.53.663h11.13a3.438,3.438,0,0,1,0,6.875H38.559a1.718,1.718,0,1,0,0,3.437H56.032a6.862,6.862,0,0,0,3.222-.8l20.9-7.184a3.19,3.19,0,1,1,2.406,5.909Zm0,0" transform="translate(0 -183.923)"/><path class="a" d="M182.516,42.191a1.72,1.72,0,0,0,2.252,0c14.024-12.154,22.7-18.3,22.7-27.862C207.466,6.767,202.113.5,194.593.5c-4.939,0-8.721,2.847-11.157,7.119C181.006,3.357,177.228.5,172.281.5a12.7,12.7,0,0,0-12.262,9.5,1.719,1.719,0,1,0,3.3.967,9.326,9.326,0,0,1,8.964-7.034c4.9,0,8.343,4.354,9.5,8.408a1.719,1.719,0,0,0,3.313,0c.023-.084,2.411-8.408,9.5-8.408,5.379,0,9.436,4.466,9.436,10.39,0,7.646-7.474,13.158-20.388,24.293-7.868-6.757-14.118-11.513-17.671-16.166a1.719,1.719,0,1,0-2.733,2.086c4,5.244,10.764,10.269,19.279,17.65Zm0,0" transform="translate(-132.457)"/><path class="a" d="M160.719,88.6a1.719,1.719,0,1,0,1.719,1.719A1.72,1.72,0,0,0,160.719,88.6Zm0,0" transform="translate(-131.671 -72.955)"/></g></svg>