<svg xmlns="http://www.w3.org/2000/svg" width="69.241" height="69.241" viewBox="0 0 69.241 69.241"><defs><style>.a{fill:#0033a0;}</style></defs><g transform="translate(60.009 13.848)"><path class="a" d="M448.35,102.4a4.616,4.616,0,1,0,4.616,4.616A4.621,4.621,0,0,0,448.35,102.4Zm0,6.924a2.308,2.308,0,1,1,2.308-2.308A2.31,2.31,0,0,1,448.35,109.324Z" transform="translate(-443.734 -102.4)"/></g><g transform="translate(0 51.931)"><path class="a" d="M4.616,384a4.616,4.616,0,1,0,4.616,4.616A4.621,4.621,0,0,0,4.616,384Zm0,6.924a2.308,2.308,0,1,1,2.308-2.308A2.31,2.31,0,0,1,4.616,390.924Z" transform="translate(0 -384)"/></g><g transform="translate(50.776 10.385)"><path class="a" d="M387.074,81.713l-9.956-4.806a1.154,1.154,0,1,0-1,2.078l9.956,4.806a1.154,1.154,0,0,0,1-2.078Z" transform="translate(-375.463 -76.792)"/></g><g transform="translate(47.315 60.009)"><path class="a" d="M354.483,443.733a4.616,4.616,0,1,0,4.616,4.616A4.621,4.621,0,0,0,354.483,443.733Zm0,6.924a2.308,2.308,0,1,1,2.308-2.308A2.31,2.31,0,0,1,354.483,450.657Z" transform="translate(-349.867 -443.733)"/></g><g transform="translate(38.082 56.545)"><path class="a" d="M293.207,423.046l-9.956-4.806a1.154,1.154,0,1,0-1,2.078l9.956,4.806a1.154,1.154,0,1,0,1-2.078Z" transform="translate(-281.596 -418.124)"/></g><g transform="translate(30.004 31.158)"><path class="a" d="M226.483,230.4a4.616,4.616,0,1,0,4.616,4.616A4.621,4.621,0,0,0,226.483,230.4Zm0,6.924a2.308,2.308,0,1,1,2.308-2.308A2.31,2.31,0,0,1,226.483,237.324Z" transform="translate(-221.867 -230.4)"/></g><g transform="translate(23.08 26.543)"><path class="a" d="M180.176,202.475l-7.648-5.961a1.154,1.154,0,1,0-1.419,1.821l7.648,5.961a1.154,1.154,0,1,0,1.419-1.821Z" transform="translate(-170.664 -196.272)"/></g><g transform="translate(42.698 30.004)"><path class="a" d="M328.427,221.867a12.694,12.694,0,1,0,12.694,12.694A12.709,12.709,0,0,0,328.427,221.867Zm0,23.08a10.386,10.386,0,1,1,10.386-10.386A10.4,10.4,0,0,1,328.427,244.947Z" transform="translate(-315.733 -221.867)"/></g><g transform="translate(50.777 34.62)"><path class="a" d="M380.083,256a4.616,4.616,0,1,0,4.616,4.616A4.621,4.621,0,0,0,380.083,256Zm0,6.924a2.308,2.308,0,1,1,2.308-2.308A2.31,2.31,0,0,1,380.083,262.924Z" transform="translate(-375.467 -256)"/></g><g transform="translate(48.469 46.16)"><path class="a" d="M368.672,341.333h-6.7a3.533,3.533,0,0,0-3.576,3.479v3.042a1.155,1.155,0,0,0,.576,1,12.63,12.63,0,0,0,12.7,0,1.153,1.153,0,0,0,.576-1v-3.042A3.533,3.533,0,0,0,368.672,341.333Zm1.268,5.834a10.464,10.464,0,0,1-9.232,0v-2.353a1.225,1.225,0,0,1,1.268-1.172h6.7a1.225,1.225,0,0,1,1.268,1.172v2.353Z" transform="translate(-358.4 -341.333)"/></g><g transform="translate(15.002 43.853)"><path class="a" d="M123.627,324.267a12.694,12.694,0,1,0,12.694,12.694A12.709,12.709,0,0,0,123.627,324.267Zm0,23.08a10.386,10.386,0,1,1,10.386-10.386A10.4,10.4,0,0,1,123.627,347.347Z" transform="translate(-110.933 -324.267)"/></g><g transform="translate(23.08 48.469)"><path class="a" d="M175.283,358.4a4.616,4.616,0,1,0,4.616,4.616A4.621,4.621,0,0,0,175.283,358.4Zm0,6.924a2.308,2.308,0,1,1,2.308-2.308A2.31,2.31,0,0,1,175.283,365.324Z" transform="translate(-170.667 -358.4)"/></g><g transform="translate(20.772 60.009)"><path class="a" d="M163.872,443.733h-6.7a3.533,3.533,0,0,0-3.576,3.479v3.042a1.155,1.155,0,0,0,.576,1,12.63,12.63,0,0,0,12.7,0,1.153,1.153,0,0,0,.576-1v-3.042A3.533,3.533,0,0,0,163.872,443.733Zm1.268,5.834a10.464,10.464,0,0,1-9.232,0v-2.353a1.225,1.225,0,0,1,1.268-1.173h6.7a1.225,1.225,0,0,1,1.268,1.173v2.353Z" transform="translate(-153.6 -443.733)"/></g><g transform="translate(0 15.002)"><path class="a" d="M12.694,110.933a12.694,12.694,0,1,0,12.694,12.694A12.709,12.709,0,0,0,12.694,110.933Zm0,23.08A10.386,10.386,0,1,1,23.08,123.627,10.4,10.4,0,0,1,12.694,134.013Z" transform="translate(0 -110.933)"/></g><g transform="translate(8.078 19.618)"><path class="a" d="M64.35,145.067a4.616,4.616,0,1,0,4.616,4.616A4.621,4.621,0,0,0,64.35,145.067Zm0,6.924a2.308,2.308,0,1,1,2.308-2.308A2.31,2.31,0,0,1,64.35,151.991Z" transform="translate(-59.734 -145.067)"/></g><g transform="translate(5.77 31.158)"><path class="a" d="M52.939,230.4h-6.7a3.533,3.533,0,0,0-3.576,3.479v3.042a1.155,1.155,0,0,0,.576,1,12.63,12.63,0,0,0,12.7,0,1.153,1.153,0,0,0,.576-1v-3.042A3.533,3.533,0,0,0,52.939,230.4Zm1.268,5.834a10.464,10.464,0,0,1-9.232,0v-2.353a1.225,1.225,0,0,1,1.268-1.172h6.7a1.225,1.225,0,0,1,1.268,1.172v2.353Z" transform="translate(-42.667 -230.4)"/></g><g transform="translate(27.696)"><path class="a" d="M217.494,0a12.694,12.694,0,1,0,12.694,12.694A12.709,12.709,0,0,0,217.494,0Zm0,23.08A10.386,10.386,0,1,1,227.88,12.694,10.4,10.4,0,0,1,217.494,23.08Z" transform="translate(-204.8)"/></g><g transform="translate(35.774 4.616)"><path class="a" d="M269.15,34.133a4.616,4.616,0,1,0,4.616,4.616A4.621,4.621,0,0,0,269.15,34.133Zm0,6.924a2.308,2.308,0,1,1,2.308-2.308A2.31,2.31,0,0,1,269.15,41.057Z" transform="translate(-264.534 -34.133)"/></g><g transform="translate(33.466 16.156)"><path class="a" d="M257.739,119.467h-6.7a3.533,3.533,0,0,0-3.576,3.479v3.042a1.155,1.155,0,0,0,.576,1,12.63,12.63,0,0,0,12.7,0,1.153,1.153,0,0,0,.576-1v-3.042A3.533,3.533,0,0,0,257.739,119.467Zm1.268,5.834a10.464,10.464,0,0,1-9.232,0v-2.353a1.225,1.225,0,0,1,1.268-1.173h6.7a1.225,1.225,0,0,1,1.268,1.173V125.3Z" transform="translate(-247.467 -119.467)"/></g><g transform="translate(19.7 11.54)"><path class="a" d="M155.7,85.736a1.156,1.156,0,0,0-1.627-.126l-8,6.843a1.154,1.154,0,1,0,1.5,1.753l8-6.843A1.154,1.154,0,0,0,155.7,85.736Z" transform="translate(-145.671 -85.333)"/></g><g transform="translate(46.16 20.774)"><path class="a" d="M350.334,163.3l-6.924-9.232a1.154,1.154,0,0,0-1.846,1.384l6.924,9.232a1.154,1.154,0,0,0,1.846-1.384Z" transform="translate(-341.333 -153.61)"/></g><g transform="translate(37.167 46.053)"><path class="a" d="M283.357,341a1.154,1.154,0,0,0-1.616-.231l-6.446,4.834a1.154,1.154,0,0,0,1.385,1.845l6.446-4.834A1.153,1.153,0,0,0,283.357,341Z" transform="translate(-274.833 -340.54)"/></g><g transform="translate(6.924 55.393)"><path class="a" d="M60.432,409.6H52.354a1.154,1.154,0,1,0,0,2.308h8.078a1.154,1.154,0,0,0,0-2.308Z" transform="translate(-51.2 -409.6)"/></g><g transform="translate(8.078)"><path class="a" d="M64.349,0a4.616,4.616,0,1,0,4.616,4.616A4.621,4.621,0,0,0,64.349,0Zm0,6.924a2.308,2.308,0,1,1,2.308-2.308A2.31,2.31,0,0,1,64.349,6.924Z" transform="translate(-59.733)"/></g><g transform="translate(11.54 6.924)"><path class="a" d="M86.488,51.2a1.154,1.154,0,0,0-1.154,1.154v8.078a1.154,1.154,0,0,0,2.308,0V52.354A1.154,1.154,0,0,0,86.488,51.2Z" transform="translate(-85.334 -51.2)"/></g></svg>