<svg xmlns="http://www.w3.org/2000/svg" width="74.402" height="74.402" viewBox="0 0 74.402 74.402"><defs><style>.a{fill:#0033a0;}</style></defs><path class="a" d="M63.506,10.9A37.2,37.2,0,0,0,10.9,63.506,37.2,37.2,0,0,0,63.506,10.9Zm1.058,4.445A34.724,34.724,0,0,1,72.2,36.111H66.248V29.122a4.665,4.665,0,0,0-4.66-4.66H55.752a57.107,57.107,0,0,0-1.392-5.727A69.773,69.773,0,0,0,64.564,15.341ZM38.291,2.251c3.978.5,7.767,3.742,10.77,9.254a1.09,1.09,0,0,0,1.914-1.043,24.717,24.717,0,0,0-5.833-7.381,34.791,34.791,0,0,1,16.822,9.356q.57.57,1.109,1.162a67.547,67.547,0,0,1-9.391,3.059c-.192-.551-.39-1.1-.6-1.63a1.09,1.09,0,0,0-2.03.793c.17.435.333.878.491,1.326a68.8,68.8,0,0,1-13.255,1.482Zm0,18.558A70.959,70.959,0,0,0,52.232,19.23q.761,2.506,1.3,5.232H38.291Zm-2.18-18.56V18.629a68.789,68.789,0,0,1-13.248-1.485,35.19,35.19,0,0,1,4.271-8.528C29.817,4.832,32.9,2.652,36.111,2.249Zm0,18.559v3.654H20.867c.36-1.811.8-3.563,1.31-5.236A70.96,70.96,0,0,0,36.111,20.809ZM12.437,12.437A34.789,34.789,0,0,1,29.252,3.083a21.813,21.813,0,0,0-3.9,4.272,37.279,37.279,0,0,0-4.643,9.3,67.546,67.546,0,0,1-9.378-3.058Q11.872,13,12.437,12.437Zm-2.594,2.9a69.773,69.773,0,0,0,10.2,3.4,57.353,57.353,0,0,0-1.393,5.733H12.814a4.665,4.665,0,0,0-4.66,4.66v6.989H2.2A34.724,34.724,0,0,1,9.843,15.334Zm0,43.731A34.726,34.726,0,0,1,2.2,38.291H8.154V45.28a4.665,4.665,0,0,0,4.66,4.66h5.836a57.151,57.151,0,0,0,1.393,5.73A69.8,69.8,0,0,0,9.84,59.065ZM36.111,72.151c-3.975-.5-7.763-3.738-10.764-9.244a1.09,1.09,0,0,0-1.914,1.043,24.7,24.7,0,0,0,5.827,7.37,34.792,34.792,0,0,1-16.823-9.356q-.568-.568-1.106-1.158a67.563,67.563,0,0,1,9.388-3.06c.187.538.38,1.07.582,1.589a1.09,1.09,0,0,0,2.031-.792c-.165-.422-.323-.853-.477-1.287a68.8,68.8,0,0,1,13.255-1.484Zm0-18.558a70.96,70.96,0,0,0-13.94,1.581c-.508-1.672-.944-3.42-1.3-5.234H36.111Zm-23.3-5.833a2.483,2.483,0,0,1-2.48-2.48V29.122a2.483,2.483,0,0,1,2.48-2.48H61.588a2.483,2.483,0,0,1,2.48,2.48V45.28h0a2.483,2.483,0,0,1-2.48,2.48Zm40.721,2.18c-.36,1.81-.8,3.562-1.309,5.233a70.957,70.957,0,0,0-13.935-1.58V49.939ZM38.291,72.153V55.773A68.8,68.8,0,0,1,51.54,57.256a35.19,35.19,0,0,1-4.271,8.53C44.585,69.57,41.5,71.75,38.291,72.153ZM61.965,61.965A34.79,34.79,0,0,1,45.15,71.319a21.815,21.815,0,0,0,3.9-4.273,37.282,37.282,0,0,0,4.644-9.3,67.572,67.572,0,0,1,9.38,3.058Q62.532,61.4,61.965,61.965Zm2.6-2.9a69.784,69.784,0,0,0-10.2-3.395,57.389,57.389,0,0,0,1.393-5.73h5.833a4.665,4.665,0,0,0,4.66-4.66V38.291H72.2A34.723,34.723,0,0,1,64.561,59.065Z"/><g transform="translate(26.282 31.452)"><path class="a" d="M188.942,225.755h-5.9v-2.48h5.026a1.09,1.09,0,0,0,0-2.18h-5.026v-2.48h5.9a1.09,1.09,0,0,0,0-2.18h-6.989a1.09,1.09,0,0,0-1.09,1.09v9.319a1.09,1.09,0,0,0,1.09,1.09h6.989a1.09,1.09,0,0,0,0-2.18Z" transform="translate(-180.863 -216.436)"/></g><g transform="translate(14.925 31.452)"><path class="a" d="M110.785,216.436a1.09,1.09,0,0,0-1.09,1.09v6.049l-5.028-6.7a1.09,1.09,0,0,0-1.962.654v9.319a1.09,1.09,0,1,0,2.18,0V220.8l5.028,6.7a1.09,1.09,0,0,0,1.962-.654v-9.319A1.09,1.09,0,0,0,110.785,216.436Z" transform="translate(-102.706 -216.436)"/></g><g transform="translate(37.021 31.451)"><path class="a" d="M266.631,216.474a1.09,1.09,0,0,0-1.344.754l-1.572,5.589-1.572-5.589a1.09,1.09,0,0,0-2.1,0l-1.572,5.589-1.572-5.589a1.09,1.09,0,1,0-2.1.59l2.621,9.319a1.09,1.09,0,0,0,2.1,0l1.572-5.589,1.572,5.589a1.09,1.09,0,0,0,2.1,0l2.621-9.319A1.09,1.09,0,0,0,266.631,216.474Z" transform="translate(-254.762 -216.433)"/></g><g transform="translate(51.036 31.452)"><path class="a" d="M356.083,221.135c-2.255-.626-2.7-1.05-2.7-1.571,0-.29.908-.949,2.4-.949s2.4.659,2.4.949a1.09,1.09,0,1,0,2.18,0c0-1.783-1.971-3.128-4.584-3.128s-4.584,1.345-4.584,3.128c0,2.479,2.583,3.2,4.293,3.671,2.255.626,2.7,1.05,2.7,1.571,0,.29-.909.949-2.4.949s-2.4-.659-2.4-.949a1.09,1.09,0,0,0-2.18,0c0,1.783,1.971,3.128,4.584,3.128s4.584-1.345,4.584-3.128C360.376,222.328,357.793,221.61,356.083,221.135Z" transform="translate(-351.207 -216.436)"/></g></svg>