<svg xmlns="http://www.w3.org/2000/svg" width="80.499" height="73.896" viewBox="0 0 80.499 73.896"><defs><style>.a{fill:#fff;}</style></defs><g transform="translate(0 -21)"><path class="a" d="M246,22.572v4.717a1.572,1.572,0,1,0,3.144,0V22.572a1.572,1.572,0,1,0-3.144,0Z" transform="translate(-207.323)"/><path class="a" d="M141.784,49.339a1.572,1.572,0,0,0-.576,2.148l2.358,4.086A1.572,1.572,0,0,0,146.29,54l-2.358-4.086A1.572,1.572,0,0,0,141.784,49.339Z" transform="translate(-118.829 -23.706)"/><path class="a" d="M66.486,126.21a1.572,1.572,0,1,0-1.572,2.723L69,131.292a1.572,1.572,0,1,0,1.572-2.723Z" transform="translate(-54.045 -88.491)"/><path class="a" d="M338.567,49.915,336.209,54a1.572,1.572,0,0,0,2.723,1.572l2.358-4.086a1.572,1.572,0,0,0-2.723-1.572Z" transform="translate(-283.171 -23.706)"/><path class="a" d="M404.237,131.29l4.086-2.358a1.572,1.572,0,0,0-1.572-2.723l-4.086,2.358a1.572,1.572,0,0,0,1.572,2.723Z" transform="translate(-338.693 -88.49)"/><circle class="a" cx="1.653" cy="1.653" r="1.653" transform="translate(46.035 85.223)"/><path class="a" d="M78.927,153.452H64.6a3.178,3.178,0,0,1-3.137-2.753,40.337,40.337,0,0,1-.226-6.771,41.1,41.1,0,0,0-.989-11.969A30.715,30.715,0,0,0,51.8,118.132l-6.671-6.671a1.573,1.573,0,0,0-2.224,0,10.072,10.072,0,0,0-2.659,4.74,10.074,10.074,0,0,0-2.659-4.74,1.573,1.573,0,0,0-2.223,0L28.7,118.132a30.714,30.714,0,0,0-8.449,13.827,41.107,41.107,0,0,0-.989,11.97,40.319,40.319,0,0,1-.227,6.77,3.178,3.178,0,0,1-3.137,2.752H1.572A1.572,1.572,0,0,0,0,155.024v14.15a1.572,1.572,0,0,0,1.572,1.572H19.949c10.59,0,17.788-9.429,20.3-18.849a30.39,30.39,0,0,0,2.2,5.821,1.572,1.572,0,1,0,2.811-1.409,27.3,27.3,0,0,1-2.88-12.791c.067-2.966.115-5.109-.422-6.9a3.144,3.144,0,0,1,6.025-1.8,17.547,17.547,0,0,1,.759,3.985v4.9a1.572,1.572,0,0,0,3.144,0v-5.031A18.583,18.583,0,0,0,48,128.082a56.285,56.285,0,0,1-4-5.988,7.069,7.069,0,0,1,.149-7.168l5.431,5.431c8.841,8.84,8.677,16.294,8.517,23.5a43.353,43.353,0,0,0,.261,7.305A6.3,6.3,0,0,0,64.6,156.6H77.355V167.6H60.55a14.482,14.482,0,0,1-6.594-1.6,1.572,1.572,0,0,0-1.438,2.8,17.639,17.639,0,0,0,8.033,1.945H78.927a1.572,1.572,0,0,0,1.572-1.572v-14.15a1.572,1.572,0,0,0-1.572-1.572ZM38.542,136.622c-.536,1.787-.488,3.93-.421,6.9.249,11.112-7.1,24.083-18.172,24.083H3.144V156.6H15.9a6.3,6.3,0,0,0,6.246-5.429,43.341,43.341,0,0,0,.261-7.308c-.159-7.209-.324-14.663,8.517-23.5l5.431-5.431a7.068,7.068,0,0,1,.15,7.167c-3.227,5.728-7.886,9.419-7.886,16.58V143.7a1.572,1.572,0,0,0,3.144,0v-4.9a16.219,16.219,0,0,1,.759-3.986,3.144,3.144,0,1,1,6.024,1.807Zm6.542-7.192a6.257,6.257,0,0,0-4.834,2.142,6.259,6.259,0,0,0-4.834-2.143,56.648,56.648,0,0,0,3.825-5.8,10.143,10.143,0,0,0,1.008-2.558,10.155,10.155,0,0,0,1.009,2.559,56.586,56.586,0,0,0,3.825,5.795Z" transform="translate(0 -75.851)"/></g></svg>