<svg xmlns="http://www.w3.org/2000/svg" width="88.879" height="55.827" viewBox="0 0 88.879 55.827"><defs><style>.a{fill:#fff;}</style></defs><g transform="translate(0 -95.201)"><g transform="translate(10.502 133.824)"><g transform="translate(0 0)"><path class="a" d="M63.463,318.208a1.735,1.735,0,1,0,.509,1.227A1.749,1.749,0,0,0,63.463,318.208Z" transform="translate(-60.5 -317.699)"/></g></g><g transform="translate(0 95.201)"><g transform="translate(0 0)"><path class="a" d="M88.227,137.521,75.208,127.105a1.736,1.736,0,0,0-2.82,1.355v4.516H59.976l-9.851-9.867,9.85-9.856H72.388v4.513a1.736,1.736,0,0,0,2.821,1.356l13.019-10.415a1.736,1.736,0,0,0,0-2.711L75.208,95.581a1.736,1.736,0,0,0-2.82,1.355v4.513H55.805a1.736,1.736,0,0,0-1.228.509L41.772,114.771l-13.643-13.66A1.736,1.736,0,0,0,26.9,100.6H11.543a5.9,5.9,0,1,0,0,3.472H26.181l13.137,13.153-3.436,3.438-11.2-11.221a1.736,1.736,0,0,0-1.229-.509H19.1a1.736,1.736,0,0,0,0,3.472H22.73l10.7,10.715-10.7,10.7H19.1a1.736,1.736,0,0,0,0,3.472h4.353a1.735,1.735,0,0,0,1.228-.509l31.848-31.866H72.388v4.861H59.256a1.735,1.735,0,0,0-1.228.509L26.181,142.157H11.544a5.9,5.9,0,1,0,0,3.472H26.9a1.735,1.735,0,0,0,1.228-.509l13.653-13.661,12.8,12.813a1.736,1.736,0,0,0,1.228.509H72.388v4.511a1.736,1.736,0,0,0,2.821,1.356l13.019-10.415a1.736,1.736,0,0,0,0-2.711ZM75.859,100.549l8.5,6.8-8.5,6.8ZM5.9,104.768a2.43,2.43,0,1,1,2.43-2.43A2.433,2.433,0,0,1,5.9,104.768Zm2.421,39.3a2.431,2.431,0,1,1,0-.358,1.759,1.759,0,0,0-.009.18A1.732,1.732,0,0,0,8.323,144.072Zm64.064-2.763H56.525L44.236,129l3.436-3.438,10.356,10.374a1.736,1.736,0,0,0,1.229.509H72.388Zm3.472,4.37V132.072l8.5,6.8Z" transform="translate(0 -95.201)"/></g></g><g transform="translate(10.502 108.935)"><g transform="translate(0 0)"><path class="a" d="M63.463,174.828a1.735,1.735,0,1,0,.509,1.227A1.749,1.749,0,0,0,63.463,174.828Z" transform="translate(-60.5 -174.319)"/></g></g></g></svg>